<mxfile host="app.diagrams.net" modified="2020-10-14T02:20:22.335Z" agent="5.0 (Windows NT 10.0; Win64; x64) AppleWebKit/537.36 (KHTML, like Gecko) Chrome/86.0.4240.75 Safari/537.36 Edg/86.0.622.38" etag="jV-7Z1QvjJBW3T6o3ic-" version="13.7.9" type="github">
  <diagram id="C5RBs43oDa-KdzZeNtuy" name="Page-1">
    <mxGraphModel dx="868" dy="482" grid="1" gridSize="10" guides="1" tooltips="1" connect="1" arrows="1" fold="1" page="1" pageScale="1" pageWidth="827" pageHeight="1169" math="0" shadow="0">
      <root>
        <mxCell id="WIyWlLk6GJQsqaUBKTNV-0" />
        <mxCell id="WIyWlLk6GJQsqaUBKTNV-1" parent="WIyWlLk6GJQsqaUBKTNV-0" />
        <mxCell id="Xm7t2ROMkLi6Q7iHPP3y-8" value="" style="edgeStyle=orthogonalEdgeStyle;rounded=0;orthogonalLoop=1;jettySize=auto;html=1;fontFamily=仿宋;" parent="WIyWlLk6GJQsqaUBKTNV-1" source="Xm7t2ROMkLi6Q7iHPP3y-0" target="Xm7t2ROMkLi6Q7iHPP3y-6" edge="1">
          <mxGeometry relative="1" as="geometry" />
        </mxCell>
        <mxCell id="Xm7t2ROMkLi6Q7iHPP3y-0" value="LUC" style="shape=parallelogram;html=1;strokeWidth=2;perimeter=parallelogramPerimeter;whiteSpace=wrap;rounded=1;arcSize=12;size=0.23;fontFamily=仿宋;fontSource=https%3A%2F%2Ffonts.googleapis.com%2Fcss%3Ffamily%3D%25E4%25BB%25BF%25E5%25AE%258B;" parent="WIyWlLk6GJQsqaUBKTNV-1" vertex="1">
          <mxGeometry x="330" y="50" width="100" height="50" as="geometry" />
        </mxCell>
        <mxCell id="Xm7t2ROMkLi6Q7iHPP3y-7" style="edgeStyle=orthogonalEdgeStyle;rounded=0;orthogonalLoop=1;jettySize=auto;html=1;entryX=0.5;entryY=0;entryDx=0;entryDy=0;fontFamily=仿宋;exitX=0.5;exitY=1;exitDx=0;exitDy=0;" parent="WIyWlLk6GJQsqaUBKTNV-1" source="Xm7t2ROMkLi6Q7iHPP3y-1" target="Xm7t2ROMkLi6Q7iHPP3y-6" edge="1">
          <mxGeometry relative="1" as="geometry">
            <Array as="points">
              <mxPoint x="285" y="110" />
              <mxPoint x="380" y="110" />
            </Array>
          </mxGeometry>
        </mxCell>
        <mxCell id="Xm7t2ROMkLi6Q7iHPP3y-1" value="&lt;font data-font-src=&quot;https://fonts.googleapis.com/css?family=%E9%87%91%E6%A2%85%E5%8B%98%E6%B5%81%E7%AB%8B%E4%BD%93%E7%95%99%E5%BD%B1&quot;&gt;LAI&lt;/font&gt;" style="shape=parallelogram;html=1;strokeWidth=2;perimeter=parallelogramPerimeter;whiteSpace=wrap;rounded=1;arcSize=12;size=0.23;fontFamily=仿宋;fontSource=https%3A%2F%2Ffonts.googleapis.com%2Fcss%3Ffamily%3D%25E4%25BB%25BF%25E5%25AE%258B;" parent="WIyWlLk6GJQsqaUBKTNV-1" vertex="1">
          <mxGeometry x="235" y="50" width="100" height="50" as="geometry" />
        </mxCell>
        <mxCell id="Xm7t2ROMkLi6Q7iHPP3y-14" style="edgeStyle=orthogonalEdgeStyle;rounded=0;orthogonalLoop=1;jettySize=auto;html=1;entryX=0.5;entryY=0;entryDx=0;entryDy=0;fontFamily=仿宋;" parent="WIyWlLk6GJQsqaUBKTNV-1" source="Xm7t2ROMkLi6Q7iHPP3y-2" target="Xm7t2ROMkLi6Q7iHPP3y-6" edge="1">
          <mxGeometry relative="1" as="geometry">
            <Array as="points">
              <mxPoint x="475" y="110" />
              <mxPoint x="380" y="110" />
            </Array>
          </mxGeometry>
        </mxCell>
        <mxCell id="Xm7t2ROMkLi6Q7iHPP3y-2" value="高程数据" style="shape=parallelogram;html=1;strokeWidth=2;perimeter=parallelogramPerimeter;whiteSpace=wrap;rounded=1;arcSize=12;size=0.23;fontFamily=仿宋;fontSource=https%3A%2F%2Ffonts.googleapis.com%2Fcss%3Ffamily%3D%25E4%25BB%25BF%25E5%25AE%258B;" parent="WIyWlLk6GJQsqaUBKTNV-1" vertex="1">
          <mxGeometry x="425" y="50" width="100" height="50" as="geometry" />
        </mxCell>
        <mxCell id="Xm7t2ROMkLi6Q7iHPP3y-15" style="edgeStyle=orthogonalEdgeStyle;rounded=0;orthogonalLoop=1;jettySize=auto;html=1;entryX=0;entryY=0.5;entryDx=0;entryDy=0;fontFamily=仿宋;" parent="WIyWlLk6GJQsqaUBKTNV-1" source="Xm7t2ROMkLi6Q7iHPP3y-3" target="Xm7t2ROMkLi6Q7iHPP3y-5" edge="1">
          <mxGeometry relative="1" as="geometry" />
        </mxCell>
        <mxCell id="Xm7t2ROMkLi6Q7iHPP3y-3" value="SNIC分割算法" style="rounded=1;whiteSpace=wrap;html=1;absoluteArcSize=1;arcSize=14;strokeWidth=2;fontFamily=仿宋;" parent="WIyWlLk6GJQsqaUBKTNV-1" vertex="1">
          <mxGeometry x="330" y="190" width="100" height="50" as="geometry" />
        </mxCell>
        <mxCell id="Xm7t2ROMkLi6Q7iHPP3y-12" style="edgeStyle=orthogonalEdgeStyle;rounded=0;orthogonalLoop=1;jettySize=auto;html=1;entryX=0;entryY=0.5;entryDx=0;entryDy=0;fontFamily=仿宋;" parent="WIyWlLk6GJQsqaUBKTNV-1" source="Xm7t2ROMkLi6Q7iHPP3y-4" target="Xm7t2ROMkLi6Q7iHPP3y-3" edge="1">
          <mxGeometry relative="1" as="geometry" />
        </mxCell>
        <mxCell id="Xm7t2ROMkLi6Q7iHPP3y-4" value="聚类生长点" style="shape=parallelogram;html=1;strokeWidth=2;perimeter=parallelogramPerimeter;whiteSpace=wrap;rounded=1;arcSize=12;size=0.23;fontFamily=仿宋;fontSource=https%3A%2F%2Ffonts.googleapis.com%2Fcss%3Ffamily%3D%25E4%25BB%25BF%25E5%25AE%258B;" parent="WIyWlLk6GJQsqaUBKTNV-1" vertex="1">
          <mxGeometry x="140" y="190" width="100" height="50" as="geometry" />
        </mxCell>
        <mxCell id="Xm7t2ROMkLi6Q7iHPP3y-5" value="自然&lt;br&gt;代谢单元" style="shape=parallelogram;html=1;strokeWidth=2;perimeter=parallelogramPerimeter;whiteSpace=wrap;rounded=1;arcSize=12;size=0.23;fontFamily=仿宋;fontSource=https%3A%2F%2Ffonts.googleapis.com%2Fcss%3Ffamily%3D%25E4%25BB%25BF%25E5%25AE%258B;" parent="WIyWlLk6GJQsqaUBKTNV-1" vertex="1">
          <mxGeometry x="520" y="190" width="100" height="50" as="geometry" />
        </mxCell>
        <mxCell id="Xm7t2ROMkLi6Q7iHPP3y-11" value="" style="edgeStyle=orthogonalEdgeStyle;rounded=0;orthogonalLoop=1;jettySize=auto;html=1;fontFamily=仿宋;" parent="WIyWlLk6GJQsqaUBKTNV-1" source="Xm7t2ROMkLi6Q7iHPP3y-6" target="Xm7t2ROMkLi6Q7iHPP3y-3" edge="1">
          <mxGeometry relative="1" as="geometry" />
        </mxCell>
        <mxCell id="Xm7t2ROMkLi6Q7iHPP3y-6" value="要素特征提取&lt;br&gt;（平均、方差、增长……）" style="rounded=1;whiteSpace=wrap;html=1;absoluteArcSize=1;arcSize=14;strokeWidth=2;fontFamily=仿宋;" parent="WIyWlLk6GJQsqaUBKTNV-1" vertex="1">
          <mxGeometry x="280" y="121" width="200" height="50" as="geometry" />
        </mxCell>
      </root>
    </mxGraphModel>
  </diagram>
</mxfile>
